<?xml version="1.0" encoding="UTF-8" standalone="no"?>
<!DOCTYPE svg PUBLIC "-//W3C//DTD SVG 1.1//EN"
 "http://www.w3.org/Graphics/SVG/1.1/DTD/svg11.dtd">
<!-- Generated by graphviz version 7.1.0 (20230121.1956)
 -->
<!-- Title: dependency&#45;cruiser output Pages: 1 -->
<svg width="469pt" height="230pt"
 viewBox="0.00 0.00 469.00 230.00" xmlns="http://www.w3.org/2000/svg" xmlns:xlink="http://www.w3.org/1999/xlink">
<g id="graph0" class="graph" transform="scale(1 1) rotate(0) translate(4 226)">
<title>dependency&#45;cruiser output</title>
<polygon fill="white" stroke="none" points="-4,4 -4,-226 465,-226 465,4 -4,4"/>
<g id="clust1" class="cluster">
<title>cluster_app</title>
<path fill="#ffffff" stroke="black" stroke-width="2" d="M20,-8C20,-8 441,-8 441,-8 447,-8 453,-14 453,-20 453,-20 453,-202 453,-202 453,-208 447,-214 441,-214 441,-214 20,-214 20,-214 14,-214 8,-208 8,-202 8,-202 8,-20 8,-20 8,-14 14,-8 20,-8"/>
<text text-anchor="middle" x="230.5" y="-202.8" font-family="Helvetica,sans-Serif" font-weight="bold" font-size="9.00">app</text>
</g>
<g id="clust2" class="cluster">
<title>cluster_app/reaction</title>
<path fill="#ffffff" stroke="black" stroke-width="2" d="M164,-16C164,-16 363,-16 363,-16 369,-16 375,-22 375,-28 375,-28 375,-56 375,-56 375,-62 369,-68 363,-68 363,-68 164,-68 164,-68 158,-68 152,-62 152,-56 152,-56 152,-28 152,-28 152,-22 158,-16 164,-16"/>
<text text-anchor="middle" x="263.5" y="-56.8" font-family="Helvetica,sans-Serif" font-weight="bold" font-size="9.00">reaction</text>
</g>
<g id="clust3" class="cluster">
<title>cluster_app/thought</title>
<path fill="#ffffff" stroke="black" stroke-width="2" d="M164,-136C164,-136 361.5,-136 361.5,-136 367.5,-136 373.5,-142 373.5,-148 373.5,-148 373.5,-176 373.5,-176 373.5,-182 367.5,-188 361.5,-188 361.5,-188 164,-188 164,-188 158,-188 152,-182 152,-176 152,-176 152,-148 152,-148 152,-142 158,-136 164,-136"/>
<text text-anchor="middle" x="262.75" y="-176.8" font-family="Helvetica,sans-Serif" font-weight="bold" font-size="9.00">thought</text>
</g>
<g id="clust4" class="cluster">
<title>cluster_app/user</title>
<path fill="#ffffff" stroke="black" stroke-width="2" d="M236,-76C236,-76 433,-76 433,-76 439,-76 445,-82 445,-88 445,-88 445,-116 445,-116 445,-122 439,-128 433,-128 433,-128 236,-128 236,-128 230,-128 224,-122 224,-116 224,-116 224,-88 224,-88 224,-82 230,-76 236,-76"/>
<text text-anchor="middle" x="334.5" y="-116.8" font-family="Helvetica,sans-Serif" font-weight="bold" font-size="9.00">user</text>
</g>
<!-- app/db&#45;client.js -->
<g id="node1" class="node">
<title>app/db&#45;client.js</title>
<g id="a_node1"><a xlink:href="app/db-client.js" xlink:title="db&#45;client.js">
<path fill="#ffffcc" stroke="black" d="M138,-72C138,-72 89,-72 89,-72 86,-72 83,-69 83,-66 83,-66 83,-60 83,-60 83,-57 86,-54 89,-54 89,-54 138,-54 138,-54 141,-54 144,-57 144,-60 144,-60 144,-66 144,-66 144,-69 141,-72 138,-72"/>
<text text-anchor="start" x="91" y="-60.8" font-family="Helvetica,sans-Serif" font-size="9.00">db&#45;client.js</text>
</a>
</g>
</g>
<!-- app/index.js -->
<g id="node2" class="node">
<title>app/index.js</title>
<g id="a_node2"><a xlink:href="app/index.js" xlink:title="index.js">
<path fill="#ffffcc" stroke="black" d="M64,-87C64,-87 22,-87 22,-87 19,-87 16,-84 16,-81 16,-81 16,-75 16,-75 16,-72 19,-69 22,-69 22,-69 64,-69 64,-69 67,-69 70,-72 70,-75 70,-75 70,-81 70,-81 70,-84 67,-87 64,-87"/>
<text text-anchor="start" x="27" y="-75.8" font-family="Helvetica,sans-Serif" font-size="9.00">index.js</text>
</a>
</g>
</g>
<!-- app/index.js&#45;&gt;app/db&#45;client.js -->
<g id="edge1" class="edge">
<title>app/index.js&#45;&gt;app/db&#45;client.js</title>
<path fill="none" stroke="#000000" stroke-width="2" stroke-opacity="0.200000" d="M70.29,-72.24C71.56,-71.96 72.85,-71.68 74.15,-71.4"/>
<polygon fill="#000000" fill-opacity="0.200000" stroke="#000000" stroke-width="2" stroke-opacity="0.200000" points="74.37,-73.5 79.78,-70.16 73.47,-69.4 74.37,-73.5"/>
</g>
<!-- app/server.js -->
<g id="node3" class="node">
<title>app/server.js</title>
<g id="a_node3"><a xlink:href="app/server.js" xlink:title="server.js">
<path fill="#ffffcc" stroke="black" d="M134.5,-102C134.5,-102 92.5,-102 92.5,-102 89.5,-102 86.5,-99 86.5,-96 86.5,-96 86.5,-90 86.5,-90 86.5,-87 89.5,-84 92.5,-84 92.5,-84 134.5,-84 134.5,-84 137.5,-84 140.5,-87 140.5,-90 140.5,-90 140.5,-96 140.5,-96 140.5,-99 137.5,-102 134.5,-102"/>
<text text-anchor="start" x="96" y="-90.8" font-family="Helvetica,sans-Serif" font-size="9.00">server.js</text>
</a>
</g>
</g>
<!-- app/index.js&#45;&gt;app/server.js -->
<g id="edge2" class="edge">
<title>app/index.js&#45;&gt;app/server.js</title>
<path fill="none" stroke="#000000" stroke-width="2" stroke-opacity="0.200000" d="M70.29,-83.76C72.68,-84.28 75.13,-84.82 77.58,-85.35"/>
<polygon fill="#000000" fill-opacity="0.200000" stroke="#000000" stroke-width="2" stroke-opacity="0.200000" points="77.13,-87.4 83.44,-86.64 78.03,-83.3 77.13,-87.4"/>
</g>
<!-- app/reaction/routes.js -->
<g id="node8" class="node">
<title>app/reaction/routes.js</title>
<g id="a_node8"><a xlink:href="app/reaction/routes.js" xlink:title="routes.js">
<path fill="#ffffcc" stroke="black" d="M208,-42C208,-42 166,-42 166,-42 163,-42 160,-39 160,-36 160,-36 160,-30 160,-30 160,-27 163,-24 166,-24 166,-24 208,-24 208,-24 211,-24 214,-27 214,-30 214,-30 214,-36 214,-36 214,-39 211,-42 208,-42"/>
<text text-anchor="start" x="169.5" y="-30.8" font-family="Helvetica,sans-Serif" font-size="9.00">routes.js</text>
</a>
</g>
</g>
<!-- app/server.js&#45;&gt;app/reaction/routes.js -->
<g id="edge8" class="edge">
<title>app/server.js&#45;&gt;app/reaction/routes.js</title>
<path fill="none" stroke="#000000" stroke-width="2" stroke-opacity="0.200000" d="M137.87,-83.66C140.17,-82.03 142.28,-80.16 144,-78 153.13,-66.53 142.28,-56.97 152,-46 152.27,-45.69 152.55,-45.39 152.84,-45.1"/>
<polygon fill="#000000" fill-opacity="0.200000" stroke="#000000" stroke-width="2" stroke-opacity="0.200000" points="153.81,-47 157.36,-41.73 151.3,-43.63 153.81,-47"/>
</g>
<!-- app/thought/routes.js -->
<g id="node9" class="node">
<title>app/thought/routes.js</title>
<g id="a_node9"><a xlink:href="app/thought/routes.js" xlink:title="routes.js">
<path fill="#ffffcc" stroke="black" d="M208,-162C208,-162 166,-162 166,-162 163,-162 160,-159 160,-156 160,-156 160,-150 160,-150 160,-147 163,-144 166,-144 166,-144 208,-144 208,-144 211,-144 214,-147 214,-150 214,-150 214,-156 214,-156 214,-159 211,-162 208,-162"/>
<text text-anchor="start" x="169.5" y="-150.8" font-family="Helvetica,sans-Serif" font-size="9.00">routes.js</text>
</a>
</g>
</g>
<!-- app/server.js&#45;&gt;app/thought/routes.js -->
<g id="edge9" class="edge">
<title>app/server.js&#45;&gt;app/thought/routes.js</title>
<path fill="none" stroke="#000000" stroke-width="2" stroke-opacity="0.200000" d="M119.73,-102.17C125.37,-111.42 135.17,-125.75 152.38,-139.25"/>
<polygon fill="#000000" fill-opacity="0.200000" stroke="#000000" stroke-width="2" stroke-opacity="0.200000" points="151.11,-140.93 157.19,-142.78 153.6,-137.54 151.11,-140.93"/>
</g>
<!-- app/user/routes.js -->
<g id="node10" class="node">
<title>app/user/routes.js</title>
<g id="a_node10"><a xlink:href="app/user/routes.js" xlink:title="routes.js">
<path fill="#ffffcc" stroke="black" d="M280,-102C280,-102 238,-102 238,-102 235,-102 232,-99 232,-96 232,-96 232,-90 232,-90 232,-87 235,-84 238,-84 238,-84 280,-84 280,-84 283,-84 286,-87 286,-90 286,-90 286,-96 286,-96 286,-99 283,-102 280,-102"/>
<text text-anchor="start" x="241.5" y="-90.8" font-family="Helvetica,sans-Serif" font-size="9.00">routes.js</text>
</a>
</g>
</g>
<!-- app/server.js&#45;&gt;app/user/routes.js -->
<g id="edge10" class="edge">
<title>app/server.js&#45;&gt;app/user/routes.js</title>
<path fill="none" stroke="#000000" stroke-width="2" stroke-opacity="0.200000" d="M140.82,-93C163.88,-93 197.58,-93 222.92,-93"/>
<polygon fill="#000000" fill-opacity="0.200000" stroke="#000000" stroke-width="2" stroke-opacity="0.200000" points="222.82,-95.1 228.82,-93 222.82,-90.9 222.82,-95.1"/>
</g>
<!-- app/reaction/Reaction.js -->
<g id="node4" class="node">
<title>app/reaction/Reaction.js</title>
<g id="a_node4"><a xlink:href="app/reaction/Reaction.js" xlink:title="Reaction.js">
<path fill="#ffffcc" stroke="black" d="M361,-42C361,-42 311,-42 311,-42 308,-42 305,-39 305,-36 305,-36 305,-30 305,-30 305,-27 308,-24 311,-24 311,-24 361,-24 361,-24 364,-24 367,-27 367,-30 367,-30 367,-36 367,-36 367,-39 364,-42 361,-42"/>
<text text-anchor="start" x="313" y="-30.8" font-family="Helvetica,sans-Serif" font-size="9.00">Reaction.js</text>
</a>
</g>
</g>
<!-- app/reaction/controller.js -->
<g id="node5" class="node">
<title>app/reaction/controller.js</title>
<g id="a_node5"><a xlink:href="app/reaction/controller.js" xlink:title="controller.js">
<path fill="#ffffcc" stroke="black" d="M285,-42C285,-42 233,-42 233,-42 230,-42 227,-39 227,-36 227,-36 227,-30 227,-30 227,-27 230,-24 233,-24 233,-24 285,-24 285,-24 288,-24 291,-27 291,-30 291,-30 291,-36 291,-36 291,-39 288,-42 285,-42"/>
<text text-anchor="start" x="235" y="-30.8" font-family="Helvetica,sans-Serif" font-size="9.00">controller.js</text>
</a>
</g>
</g>
<!-- app/reaction/controller.js&#45;&gt;app/reaction/Reaction.js -->
<g id="edge5" class="edge">
<title>app/reaction/controller.js&#45;&gt;app/reaction/Reaction.js</title>
<path fill="none" stroke="#000000" stroke-width="2" stroke-opacity="0.200000" d="M291.37,-33C292.92,-33 294.48,-33 296.04,-33"/>
<polygon fill="#000000" fill-opacity="0.200000" stroke="#000000" stroke-width="2" stroke-opacity="0.200000" points="295.93,-35.1 301.93,-33 295.93,-30.9 295.93,-35.1"/>
</g>
<!-- app/thought/controller.js -->
<g id="node6" class="node">
<title>app/thought/controller.js</title>
<g id="a_node6"><a xlink:href="app/thought/controller.js" xlink:title="controller.js">
<path fill="#ffffcc" stroke="black" d="M285,-162C285,-162 233,-162 233,-162 230,-162 227,-159 227,-156 227,-156 227,-150 227,-150 227,-147 230,-144 233,-144 233,-144 285,-144 285,-144 288,-144 291,-147 291,-150 291,-150 291,-156 291,-156 291,-159 288,-162 285,-162"/>
<text text-anchor="start" x="235" y="-150.8" font-family="Helvetica,sans-Serif" font-size="9.00">controller.js</text>
</a>
</g>
</g>
<!-- app/reaction/controller.js&#45;&gt;app/thought/controller.js -->
<g id="edge3" class="edge">
<title>app/reaction/controller.js&#45;&gt;app/thought/controller.js</title>
<path fill="none" stroke="#000000" stroke-width="2" stroke-opacity="0.200000" d="M246.89,-42.45C237.21,-50.85 224.4,-64.07 219,-79 215.52,-88.61 215.52,-115.39 219,-125 220.93,-130.34 224.59,-134.79 228.93,-138.47"/>
<polygon fill="#000000" fill-opacity="0.200000" stroke="#000000" stroke-width="2" stroke-opacity="0.200000" points="227.61,-140.11 233.72,-141.87 230.04,-136.68 227.61,-140.11"/>
</g>
<!-- app/user/controller.js -->
<g id="node7" class="node">
<title>app/user/controller.js</title>
<g id="a_node7"><a xlink:href="app/user/controller.js" xlink:title="controller.js">
<path fill="#ffffcc" stroke="black" d="M362,-102C362,-102 310,-102 310,-102 307,-102 304,-99 304,-96 304,-96 304,-90 304,-90 304,-87 307,-84 310,-84 310,-84 362,-84 362,-84 365,-84 368,-87 368,-90 368,-90 368,-96 368,-96 368,-99 365,-102 362,-102"/>
<text text-anchor="start" x="312" y="-90.8" font-family="Helvetica,sans-Serif" font-size="9.00">controller.js</text>
</a>
</g>
</g>
<!-- app/reaction/controller.js&#45;&gt;app/user/controller.js -->
<g id="edge4" class="edge">
<title>app/reaction/controller.js&#45;&gt;app/user/controller.js</title>
<path fill="none" stroke="#000000" stroke-width="2" stroke-opacity="0.200000" d="M271.3,-42.26C277.22,-47.17 284.57,-53.34 291,-59 296.9,-64.19 297.89,-66.05 304,-71 307.08,-73.5 310.43,-76.04 313.74,-78.46"/>
<polygon fill="#000000" fill-opacity="0.200000" stroke="#000000" stroke-width="2" stroke-opacity="0.200000" points="312.26,-79.98 318.37,-81.76 314.7,-76.56 312.26,-79.98"/>
</g>
<!-- app/thought/controller.js&#45;&gt;app/user/controller.js -->
<g id="edge13" class="edge">
<title>app/thought/controller.js&#45;&gt;app/user/controller.js</title>
<path fill="none" stroke="#000000" stroke-width="2" stroke-opacity="0.200000" d="M273.79,-143.64C279.23,-139.83 285.49,-135.32 291,-131 300.31,-123.7 310.32,-115.12 318.43,-107.97"/>
<polygon fill="#000000" fill-opacity="0.200000" stroke="#000000" stroke-width="2" stroke-opacity="0.200000" points="319.4,-109.92 322.48,-104.36 316.61,-106.78 319.4,-109.92"/>
</g>
<!-- app/thought/Thought.js -->
<g id="node11" class="node">
<title>app/thought/Thought.js</title>
<g id="a_node11"><a xlink:href="app/thought/Thought.js" xlink:title="Thought.js">
<path fill="#ffffcc" stroke="black" d="M359.5,-162C359.5,-162 312.5,-162 312.5,-162 309.5,-162 306.5,-159 306.5,-156 306.5,-156 306.5,-150 306.5,-150 306.5,-147 309.5,-144 312.5,-144 312.5,-144 359.5,-144 359.5,-144 362.5,-144 365.5,-147 365.5,-150 365.5,-150 365.5,-156 365.5,-156 365.5,-159 362.5,-162 359.5,-162"/>
<text text-anchor="start" x="314.5" y="-150.8" font-family="Helvetica,sans-Serif" font-size="9.00">Thought.js</text>
</a>
</g>
</g>
<!-- app/thought/controller.js&#45;&gt;app/thought/Thought.js -->
<g id="edge14" class="edge">
<title>app/thought/controller.js&#45;&gt;app/thought/Thought.js</title>
<path fill="none" stroke="#000000" stroke-width="2" stroke-opacity="0.200000" d="M291.37,-153C293.39,-153 295.44,-153 297.49,-153"/>
<polygon fill="#000000" fill-opacity="0.200000" stroke="#000000" stroke-width="2" stroke-opacity="0.200000" points="297.36,-155.1 303.36,-153 297.36,-150.9 297.36,-155.1"/>
</g>
<!-- app/user/User.js -->
<g id="node12" class="node">
<title>app/user/User.js</title>
<g id="a_node12"><a xlink:href="app/user/User.js" xlink:title="User.js">
<path fill="#ffffcc" stroke="black" d="M431,-102C431,-102 389,-102 389,-102 386,-102 383,-99 383,-96 383,-96 383,-90 383,-90 383,-87 386,-84 389,-84 389,-84 431,-84 431,-84 434,-84 437,-87 437,-90 437,-90 437,-96 437,-96 437,-99 434,-102 431,-102"/>
<text text-anchor="start" x="395.5" y="-90.8" font-family="Helvetica,sans-Serif" font-size="9.00">User.js</text>
</a>
</g>
</g>
<!-- app/user/controller.js&#45;&gt;app/user/User.js -->
<g id="edge18" class="edge">
<title>app/user/controller.js&#45;&gt;app/user/User.js</title>
<path fill="none" stroke="#000000" stroke-width="2" stroke-opacity="0.200000" d="M368.37,-93C370.34,-93 372.33,-93 374.31,-93"/>
<polygon fill="#000000" fill-opacity="0.200000" stroke="#000000" stroke-width="2" stroke-opacity="0.200000" points="373.88,-95.1 379.88,-93 373.88,-90.9 373.88,-95.1"/>
</g>
<!-- app/reaction/routes.js&#45;&gt;app/reaction/controller.js -->
<g id="edge7" class="edge">
<title>app/reaction/routes.js&#45;&gt;app/reaction/controller.js</title>
<path fill="none" stroke="#000000" stroke-width="2" stroke-opacity="0.200000" d="M214.46,-33C215.6,-33 216.74,-33 217.89,-33"/>
<polygon fill="#000000" fill-opacity="0.200000" stroke="#000000" stroke-width="2" stroke-opacity="0.200000" points="217.77,-35.1 223.77,-33 217.77,-30.9 217.77,-35.1"/>
</g>
<!-- app/reaction/routes.js&#45;&gt;app/user/controller.js -->
<g id="edge6" class="edge">
<title>app/reaction/routes.js&#45;&gt;app/user/controller.js</title>
<path fill="none" stroke="#000000" stroke-width="2" stroke-opacity="0.200000" d="M210.45,-42.4C214.94,-44.26 219.62,-46.2 224,-48 250.78,-59.01 281.25,-71.35 303.49,-80.32"/>
<polygon fill="#000000" fill-opacity="0.200000" stroke="#000000" stroke-width="2" stroke-opacity="0.200000" points="302.43,-82.16 308.78,-82.45 304,-78.26 302.43,-82.16"/>
</g>
<!-- app/thought/routes.js&#45;&gt;app/thought/controller.js -->
<g id="edge16" class="edge">
<title>app/thought/routes.js&#45;&gt;app/thought/controller.js</title>
<path fill="none" stroke="#000000" stroke-width="2" stroke-opacity="0.200000" d="M214.46,-153C215.6,-153 216.74,-153 217.89,-153"/>
<polygon fill="#000000" fill-opacity="0.200000" stroke="#000000" stroke-width="2" stroke-opacity="0.200000" points="217.77,-155.1 223.77,-153 217.77,-150.9 217.77,-155.1"/>
</g>
<!-- app/thought/routes.js&#45;&gt;app/user/controller.js -->
<g id="edge15" class="edge">
<title>app/thought/routes.js&#45;&gt;app/user/controller.js</title>
<path fill="none" stroke="#000000" stroke-width="2" stroke-opacity="0.200000" d="M210.45,-143.6C214.94,-141.74 219.62,-139.8 224,-138 250.78,-126.99 281.25,-114.65 303.49,-105.68"/>
<polygon fill="#000000" fill-opacity="0.200000" stroke="#000000" stroke-width="2" stroke-opacity="0.200000" points="304,-107.74 308.78,-103.55 302.43,-103.84 304,-107.74"/>
</g>
<!-- app/user/routes.js&#45;&gt;app/user/controller.js -->
<g id="edge19" class="edge">
<title>app/user/routes.js&#45;&gt;app/user/controller.js</title>
<path fill="none" stroke="#000000" stroke-width="2" stroke-opacity="0.200000" d="M286.23,-93C289.06,-93 291.99,-93 294.93,-93"/>
<polygon fill="#000000" fill-opacity="0.200000" stroke="#000000" stroke-width="2" stroke-opacity="0.200000" points="294.73,-95.1 300.73,-93 294.73,-90.9 294.73,-95.1"/>
</g>
<!-- app/thought/Thought.js&#45;&gt;app/reaction/Reaction.js -->
<g id="edge11" class="edge">
<title>app/thought/Thought.js&#45;&gt;app/reaction/Reaction.js</title>
<path fill="none" stroke="#000000" stroke-width="2" stroke-opacity="0.200000" d="M315.45,-143.69C308.22,-139.21 301.01,-133.03 297.5,-125 289.3,-106.27 290.52,-98.22 297.5,-79 301.72,-67.38 310.31,-56.64 318.31,-48.47"/>
<polygon fill="#000000" fill-opacity="0.200000" stroke="#000000" stroke-width="2" stroke-opacity="0.200000" points="319.73,-50.01 322.6,-44.34 316.82,-46.99 319.73,-50.01"/>
</g>
<!-- app/thought/Thought.js&#45;&gt;app/user/User.js -->
<g id="edge12" class="edge">
<title>app/thought/Thought.js&#45;&gt;app/user/User.js</title>
<path fill="none" stroke="#000000" stroke-width="2" stroke-opacity="0.200000" d="M365.87,-143.56C369.05,-141.53 372.16,-139.31 375,-137 381.86,-131.42 388.54,-124.42 394.14,-117.59"/>
<polygon fill="#000000" fill-opacity="0.200000" stroke="#000000" stroke-width="2" stroke-opacity="0.200000" points="401.51,-110.88 403.3,-104.78 398.1,-108.44 401.51,-110.88"/>
<polyline fill="none" stroke="#000000" stroke-width="2" stroke-opacity="0.200000" points="399.22,-110.47 397.48,-112.91"/>
<ellipse fill="none" stroke="#000000" stroke-width="2" stroke-opacity="0.200000" cx="395.5" cy="-115.68" rx="2.4" ry="2.4"/>
</g>
<!-- app/user/User.js&#45;&gt;app/thought/Thought.js -->
<g id="edge17" class="edge">
<title>app/user/User.js&#45;&gt;app/thought/Thought.js</title>
<path fill="none" stroke="#000000" stroke-width="2" stroke-opacity="0.200000" d="M397.69,-102.38C391.49,-109.24 383.38,-118.19 375,-125 371.17,-128.11 366.85,-131.06 362.53,-133.82"/>
<polygon fill="#000000" fill-opacity="0.200000" stroke="#000000" stroke-width="2" stroke-opacity="0.200000" points="353.47,-136.97 349.48,-141.92 355.69,-140.54 353.47,-136.97"/>
<polyline fill="none" stroke="#000000" stroke-width="2" stroke-opacity="0.200000" points="355.43,-138.23 357.98,-136.65"/>
<ellipse fill="none" stroke="#000000" stroke-width="2" stroke-opacity="0.200000" cx="360.87" cy="-134.85" rx="2.4" ry="2.4"/>
</g>
</g>
</svg>
